<?xml version="1.0" encoding="utf-8"?>
<!-- Generator: Adobe Illustrator 24.0.0, SVG Export Plug-In . SVG Version: 6.00 Build 0)  -->
<svg version="1.1" id="Livello_1" xmlns="http://www.w3.org/2000/svg" xmlns:xlink="http://www.w3.org/1999/xlink" x="0px" y="0px"
	 viewBox="0 0 28.9 29" style="enable-background:new 0 0 28.9 29;" xml:space="preserve">
<style type="text/css">
	.st0{fill:#2C6BF6;}
	.st1{fill-rule:evenodd;clip-rule:evenodd;fill:#2C6BF6;}
</style>
<path class="st0" d="M14.5,29v-5.6c4.9,0,8.9-4,8.9-8.9c0-1.1-0.2-2.2-0.6-3.2c-0.8-2.3-2.7-4.2-5-5c-4.7-1.8-9.8,0.4-11.6,5
	c-0.4,1-0.6,2.1-0.6,3.2H0C0,6.5,6.6,0,14.6,0c1.5,0,3,0.3,4.5,0.7c4.4,1.4,7.8,4.8,9.1,9.1c2.5,7.6-1.6,15.8-9.2,18.4
	C17.5,28.7,16,29,14.5,29L14.5,29z"/>
<polygon class="st1" points="14.5,23.4 8.9,23.4 8.9,17.8 8.9,17.8 14.5,17.8 14.5,17.8 "/>
<polygon class="st1" points="8.9,27.7 4.6,27.7 4.6,27.7 4.6,23.4 8.9,23.4 "/>
<polygon class="st1" points="4.6,23.4 1,23.4 1,23.4 1,19.8 1,19.8 4.6,19.8 4.6,19.8 "/>
</svg>
